<svg xmlns="http://www.w3.org/2000/svg" viewBox="0 0 760 850" width="760" height="850" role="img" aria-label="The layers of a window drawn apart, Background at the bottom and Debug at the top, each with what is drawn in it, and the window they make together">
<style>.n{font:600 14px ui-monospace,SFMono-Regular,Menlo,Consolas,monospace;fill:#1F2328}.d{font:13px system-ui,-apple-system,"Segoe UI",sans-serif;fill:#5B6572}.t{font:600 13px system-ui,-apple-system,"Segoe UI",sans-serif;fill:#1F2328}</style>
<rect width="760" height="850" fill="#F1F2F4"/>
<clipPath id="plane"><rect width="260" height="150"/></clipPath>
<g transform="matrix(1 0 -0.8 0.4 156 540)"><rect width="260" height="150" fill="#FFFFFF" fill-opacity="1"/><g clip-path="url(#plane)"><rect width="260" height="150" fill="#E4E8EE"/></g><rect width="260" height="150" fill="none" stroke="#C3C9D1" stroke-width="1.6"/></g>
<line x1="364.0" y1="570.0" x2="472" y2="570.0" stroke="#C3C9D1"/>
<text class="n" x="482" y="568.0">Background</text>
<text class="d" x="482" y="584.0">wallpapers, backdrops</text>
<g transform="matrix(1 0 -0.8 0.4 156 478)"><rect width="260" height="150" fill="#FFFFFF" fill-opacity="1"/><g clip-path="url(#plane)"><rect width="260" height="20" fill="#FFFFFF"/><rect y="20" width="260" height="1" fill="#C3C9D1"/><rect x="8" y="6" width="26" height="8" rx="2" fill="#D5DAE1"/><rect x="40" y="6" width="26" height="8" rx="2" fill="#D5DAE1"/><rect y="21" width="62" height="129" fill="#F6F7F9"/><rect x="62" y="21" width="1" height="129" fill="#C3C9D1"/><rect x="8" y="32" width="44" height="6" rx="2" fill="#C9CFD8"/><rect x="8" y="46" width="39" height="6" rx="2" fill="#C9CFD8"/><rect x="8" y="60" width="34" height="6" rx="2" fill="#C9CFD8"/><rect x="8" y="74" width="29" height="6" rx="2" fill="#C9CFD8"/><rect x="76" y="34" width="90" height="10" rx="2" fill="#1F2328" fill-opacity="0.8"/><rect x="76" y="56" width="160" height="6" rx="2" fill="#C9CFD8"/><rect x="76" y="69" width="134" height="6" rx="2" fill="#C9CFD8"/><rect x="76" y="82" width="108" height="6" rx="2" fill="#C9CFD8"/><rect x="76" y="104" width="46" height="18" rx="4" fill="#FFFFFF" stroke="#C3C9D1"/></g><rect width="260" height="150" fill="none" stroke="#3DAEE9" stroke-width="1.6"/></g>
<line x1="364.0" y1="508.0" x2="472" y2="508.0" stroke="#C3C9D1"/>
<text class="n" x="482" y="506.0">Content</text>
<text class="d" x="482" y="522.0">where components draw by default</text>
<g transform="matrix(1 0 -0.8 0.4 156 416)"><rect width="260" height="150" fill="#FFFFFF" fill-opacity="0.28"/><g clip-path="url(#plane)"><circle cx="234" cy="124" r="14" fill="#3DAEE9"/><rect x="227" y="122.5" width="14" height="3" fill="#FFFFFF"/><rect x="232.5" y="117" width="3" height="14" fill="#FFFFFF"/></g><rect width="260" height="150" fill="none" stroke="#C3C9D1" stroke-width="1.6"/></g>
<line x1="364.0" y1="446.0" x2="472" y2="446.0" stroke="#C3C9D1"/>
<text class="n" x="482" y="444.0">Floating</text>
<text class="d" x="482" y="460.0">sticky headers, floating buttons</text>
<g transform="matrix(1 0 -0.8 0.4 156 354)"><rect width="260" height="150" fill="#FFFFFF" fill-opacity="0.28"/><g clip-path="url(#plane)"><rect width="260" height="150" fill="#000000" fill-opacity="0.22"/><rect x="58" y="38" width="144" height="76" rx="6" fill="#FFFFFF" stroke="#C3C9D1"/><rect x="70" y="50" width="60" height="8" rx="2" fill="#1F2328" fill-opacity="0.8"/><rect x="70" y="66" width="118" height="6" rx="2" fill="#C9CFD8"/><rect x="112" y="88" width="36" height="16" rx="4" fill="#FFFFFF" stroke="#C3C9D1"/><rect x="154" y="88" width="36" height="16" rx="4" fill="#3DAEE9"/></g><rect width="260" height="150" fill="none" stroke="#C3C9D1" stroke-width="1.6"/></g>
<line x1="364.0" y1="384.0" x2="472" y2="384.0" stroke="#C3C9D1"/>
<text class="n" x="482" y="382.0">Modal</text>
<text class="d" x="482" y="398.0">dialogs, over a dimmed page</text>
<g transform="matrix(1 0 -0.8 0.4 156 292)"><rect width="260" height="150" fill="#FFFFFF" fill-opacity="0.28"/><g clip-path="url(#plane)"><rect x="8" y="22" width="84" height="62" rx="4" fill="#FFFFFF" stroke="#C3C9D1"/><rect x="16" y="32" width="58" height="6" rx="2" fill="#B9C0CA"/><rect x="16" y="48" width="50" height="6" rx="2" fill="#B9C0CA"/><rect x="16" y="64" width="42" height="6" rx="2" fill="#B9C0CA"/></g><rect width="260" height="150" fill="none" stroke="#C3C9D1" stroke-width="1.6"/></g>
<line x1="364.0" y1="322.0" x2="472" y2="322.0" stroke="#C3C9D1"/>
<text class="n" x="482" y="320.0">Popup</text>
<text class="d" x="482" y="336.0">menus, dropdowns</text>
<g transform="matrix(1 0 -0.8 0.4 156 230)"><rect width="260" height="150" fill="#FFFFFF" fill-opacity="0.28"/><g clip-path="url(#plane)"><rect x="96" y="124" width="74" height="18" rx="4" fill="#2B3037"/><rect x="104" y="130" width="58" height="6" rx="2" fill="#E7E9EC"/></g><rect width="260" height="150" fill="none" stroke="#C3C9D1" stroke-width="1.6"/></g>
<line x1="364.0" y1="260.0" x2="472" y2="260.0" stroke="#C3C9D1"/>
<text class="n" x="482" y="258.0">Tooltip</text>
<text class="d" x="482" y="274.0">tooltips</text>
<g transform="matrix(1 0 -0.8 0.4 156 168)"><rect width="260" height="150" fill="#FFFFFF" fill-opacity="0.28"/><g clip-path="url(#plane)"><rect x="156" y="28" width="96" height="26" rx="5" fill="#FFFFFF" stroke="#C3C9D1"/><circle cx="168" cy="41" r="4" fill="#2E9E5B"/><rect x="178" y="38" width="62" height="6" rx="2" fill="#B9C0CA"/></g><rect width="260" height="150" fill="none" stroke="#C3C9D1" stroke-width="1.6"/></g>
<line x1="364.0" y1="198.0" x2="472" y2="198.0" stroke="#C3C9D1"/>
<text class="n" x="482" y="196.0">Notification</text>
<text class="d" x="482" y="212.0">toasts</text>
<g transform="matrix(1 0 -0.8 0.4 156 106)"><rect width="260" height="150" fill="#FFFFFF" fill-opacity="0.28"/><g clip-path="url(#plane)"><rect x="150" y="62" width="58" height="18" rx="9" fill="#FFFFFF" fill-opacity="0.9" stroke="#3DAEE9" stroke-dasharray="4 3"/><rect x="160" y="68" width="38" height="6" rx="2" fill="#B9C0CA"/><path d="M204 74 l0 16 l4 -4 l3 7 l3 -1.5 l-3 -7 l6 0 z" fill="#1F2328" stroke="#FFFFFF" stroke-width="1"/></g><rect width="260" height="150" fill="none" stroke="#C3C9D1" stroke-width="1.6"/></g>
<line x1="364.0" y1="136.0" x2="472" y2="136.0" stroke="#C3C9D1"/>
<text class="n" x="482" y="134.0">Drag</text>
<text class="d" x="482" y="150.0">what follows the pointer in a drag</text>
<g transform="matrix(1 0 -0.8 0.4 156 44)"><rect width="260" height="150" fill="#FFFFFF" fill-opacity="0.28"/><g clip-path="url(#plane)"><rect x="1" y="22" width="61" height="127" fill="none" stroke="#D6336C" stroke-dasharray="5 3"/><rect x="4" y="132" width="40" height="13" rx="2" fill="#D6336C"/><rect x="9" y="136" width="30" height="5" rx="1.5" fill="#FFFFFF"/></g><rect width="260" height="150" fill="none" stroke="#C3C9D1" stroke-width="1.6"/></g>
<line x1="364.0" y1="74.0" x2="472" y2="74.0" stroke="#C3C9D1"/>
<text class="n" x="482" y="72.0">Debug</text>
<text class="d" x="482" y="88.0">inspector overlays</text>
<line x1="18" y1="600.0" x2="18" y2="52" stroke="#5B6572" stroke-width="1.2"/>
<polygon points="14,54 22,54 18,44" fill="#5B6572"/>
<text class="d" x="26" y="48">drawn last</text>
<text class="d" x="26" y="604.0">drawn first</text>
<text class="t" x="36" y="648">Together: what the window shows</text>
<g transform="translate(36 660)"><g clip-path="url(#plane)"><rect width="260" height="150" fill="#E4E8EE"/><rect width="260" height="20" fill="#FFFFFF"/><rect y="20" width="260" height="1" fill="#C3C9D1"/><rect x="8" y="6" width="26" height="8" rx="2" fill="#D5DAE1"/><rect x="40" y="6" width="26" height="8" rx="2" fill="#D5DAE1"/><rect y="21" width="62" height="129" fill="#F6F7F9"/><rect x="62" y="21" width="1" height="129" fill="#C3C9D1"/><rect x="8" y="32" width="44" height="6" rx="2" fill="#C9CFD8"/><rect x="8" y="46" width="39" height="6" rx="2" fill="#C9CFD8"/><rect x="8" y="60" width="34" height="6" rx="2" fill="#C9CFD8"/><rect x="8" y="74" width="29" height="6" rx="2" fill="#C9CFD8"/><rect x="76" y="34" width="90" height="10" rx="2" fill="#1F2328" fill-opacity="0.8"/><rect x="76" y="56" width="160" height="6" rx="2" fill="#C9CFD8"/><rect x="76" y="69" width="134" height="6" rx="2" fill="#C9CFD8"/><rect x="76" y="82" width="108" height="6" rx="2" fill="#C9CFD8"/><rect x="76" y="104" width="46" height="18" rx="4" fill="#FFFFFF" stroke="#C3C9D1"/><circle cx="234" cy="124" r="14" fill="#3DAEE9"/><rect x="227" y="122.5" width="14" height="3" fill="#FFFFFF"/><rect x="232.5" y="117" width="3" height="14" fill="#FFFFFF"/><rect width="260" height="150" fill="#000000" fill-opacity="0.22"/><rect x="58" y="38" width="144" height="76" rx="6" fill="#FFFFFF" stroke="#C3C9D1"/><rect x="70" y="50" width="60" height="8" rx="2" fill="#1F2328" fill-opacity="0.8"/><rect x="70" y="66" width="118" height="6" rx="2" fill="#C9CFD8"/><rect x="112" y="88" width="36" height="16" rx="4" fill="#FFFFFF" stroke="#C3C9D1"/><rect x="154" y="88" width="36" height="16" rx="4" fill="#3DAEE9"/><rect x="8" y="22" width="84" height="62" rx="4" fill="#FFFFFF" stroke="#C3C9D1"/><rect x="16" y="32" width="58" height="6" rx="2" fill="#B9C0CA"/><rect x="16" y="48" width="50" height="6" rx="2" fill="#B9C0CA"/><rect x="16" y="64" width="42" height="6" rx="2" fill="#B9C0CA"/><rect x="96" y="124" width="74" height="18" rx="4" fill="#2B3037"/><rect x="104" y="130" width="58" height="6" rx="2" fill="#E7E9EC"/><rect x="156" y="28" width="96" height="26" rx="5" fill="#FFFFFF" stroke="#C3C9D1"/><circle cx="168" cy="41" r="4" fill="#2E9E5B"/><rect x="178" y="38" width="62" height="6" rx="2" fill="#B9C0CA"/><rect x="150" y="62" width="58" height="18" rx="9" fill="#FFFFFF" fill-opacity="0.9" stroke="#3DAEE9" stroke-dasharray="4 3"/><rect x="160" y="68" width="38" height="6" rx="2" fill="#B9C0CA"/><path d="M204 74 l0 16 l4 -4 l3 7 l3 -1.5 l-3 -7 l6 0 z" fill="#1F2328" stroke="#FFFFFF" stroke-width="1"/><rect x="1" y="22" width="61" height="127" fill="none" stroke="#D6336C" stroke-dasharray="5 3"/><rect x="4" y="132" width="40" height="13" rx="2" fill="#D6336C"/><rect x="9" y="136" width="30" height="5" rx="1.5" fill="#FFFFFF"/></g><rect width="260" height="150" fill="none" stroke="#C3C9D1" stroke-width="1.2"/></g>
</svg>
